Patient4_TMGait_0pt6_02_right_27_EMG.mot
version=1
nRows=29
nColumns=33
inDegrees=no
endheader
time	1LAddLong	2LGlutMax	3LGlutMed	4LIliopsoas	5LSemiMemb	6LBicFemLong	7LRecFem	8LVastMed	9LVastLat	10LGasMed	11LTibAnt	12lTibPost	13LPeroneusLong	14LSol	15LExtDigLong	16LFlexDigLong	17RAddLong	18RGlutMax	19RGlutMed	20RIliopsoas	21RSemiMemb	22RBicFemLong	23RRecFem	24RVastMed	25RVastLat	26RGasMed	27RTibAnt	28RTibPost	29RPeroneusLong	30RSol	31RExtDigLong	32RFlexDigLong
32.44	0.018005	-0.19134	0.077972	-0.016632	0.098419	0.3093	-0.034485	0.003204	-0.050659	-0.16022	0.001221	0.008087	-0.005341	0.23789	0.055542	-0.041504	-0.090942	-0.25711	0.46539	-0.39902	-0.043182	0.04425	-0.003357	-0.036316	0.045013	-0.010834	0.12985	-0.012512	-0.1033	-0.12528	-0.001068	-0.0177
32.441	0.009003	-0.21484	0.13641	-0.011749	0.066071	0.35233	-0.028992	0.006104	-0.064087	-0.15091	-0.009918	0.003357	0.016022	0.17487	0.070801	-0.030975	-0.083771	-0.233	0.32059	-0.29251	-0.057068	0.037842	0.059967	0.022278	0.032043	-0.005798	-0.03479	-0.003357	-0.033112	-0.17792	0.001068	-0.016785
32.442	-0.005493	-0.22263	0.16708	0.00351	0.00473	0.22018	-0.038605	-0.002441	-0.046387	-0.061646	-0.003967	0.004883	0.016174	0.070496	0.06958	-0.009613	-0.062103	-0.19898	0.45349	-0.028839	-0.054321	0.039978	0.38849	0.15396	0.054474	0.00885	-0.091553	-0.005951	0.013733	-0.25314	-0.001221	-0.020905
32.443	-0.003967	-0.23132	-0.028992	-0.019684	-0.016022	-0.084381	-0.075684	0.001068	-0.023346	0.07843	-0.006714	0.007477	-0.014954	-0.079651	0.058899	-0.016022	-0.000305	-0.23254	0.36285	0.24002	-0.055847	0.031281	0.38269	0.13702	0.030823	0.00885	-0.14618	-0.010223	-0.11597	-0.2504	-0.000763	-0.019531
32.444	-0.006561	-0.21469	-0.051575	-0.005798	-0.094757	-0.29785	-0.08667	-0.001984	-0.00351	0.14297	-0.00473	-0.007019	-0.008087	-0.15579	0.001526	-0.011292	0.001831	-0.22034	0.5072	0.28748	-0.071716	0.021973	0.48386	0.19379	-0.005951	0.00885	-0.51651	-0.010834	-0.043182	-0.22385	-0.002289	-0.016785
32.445	0.014954	-0.1973	-0.041351	0.007782	-0.013428	-0.25803	-0.099792	0.000916	0.039978	0.27618	0.005646	-0.005188	-0.005035	-0.037842	-0.053864	0.002289	-0.005798	-0.25726	0.60593	0.11398	-0.058441	-0.00061	0.53207	0.18204	-0.005798	0.005188	-0.79407	-0.016022	0.014191	-0.16724	-0.001831	-0.01236
32.446	0.017548	-0.19821	-0.011292	-0.003967	0.066681	-0.24902	-0.071106	-0.000305	0.001373	0.49408	0.000916	-0.007172	-0.041351	-0.093994	-0.061035	0.009918	-0.007477	-0.21149	0.46493	-0.064545	-0.071716	-0.022583	0.44891	0.16144	-0.019379	0.005951	-0.72006	-0.006866	0.48096	-0.057678	-0.001678	-0.014801
32.447	0.020447	-0.11704	0.045319	0.018768	0.065002	-0.22156	-0.052032	-0.001678	-0.010376	0.31281	0.009766	-0.008698	-0.077667	-0.091705	-0.058746	-0.02182	0.004883	-0.20645	0.34042	-0.085297	-0.085754	-0.054779	0.49469	0.21454	-0.026398	0.003052	-0.52704	-0.010223	0.28961	-0.053253	-0.002594	-0.016937
32.448	0.021362	-0.085144	-0.018158	0.007324	0.050201	-0.22919	-0.05722	-0.001831	-0.014496	-0.094299	0.006104	-0.007935	-0.068359	-0.010376	-0.045776	-0.019684	-0.033417	-0.17654	0.30045	0.036011	-0.092773	-0.083923	0.42267	0.054016	-0.016479	0.007629	-0.31799	-0.011139	0.034485	-0.068665	-0.001221	-0.011749
32.449	0.0177	-0.068512	-0.059662	0.003815	0.057983	-0.16037	-0.03952	-0.002136	-0.007935	0.11597	-0.005646	-0.011902	0.038757	-0.10132	-0.021667	-0.038605	-0.037231	-0.18967	0.34882	0.21683	-0.099335	-0.084686	0.4454	0.05249	0.006714	-0.000763	-0.336	-0.013428	0.15732	0.10452	-0.001068	-0.012817
32.45	0.006561	-0.10208	-0.042725	-0.012512	0.055847	-0.006866	-0.039368	-0.005798	0.003967	0.63431	-0.00946	-0.000305	0.077057	-0.30975	-0.015869	-0.039825	-0.030518	-0.19516	0.3064	0.26169	-0.10437	-0.088043	0.35614	0.07019	-0.012665	-0.004883	-0.065155	-0.007019	0.30777	0.1889	0.001678	-0.013123
32.451	-0.010681	-0.063171	-0.036469	-0.003662	0.039215	-0.003052	-0.024719	0.009003	0.016022	0.62637	-0.003204	0.003662	0.092773	-0.28915	-0.015259	-0.028229	-0.000458	-0.22598	0.31784	0.16922	-0.10101	-0.07431	0.24414	0.010681	0.003967	-0.005798	0.23605	-0.010834	-0.15762	0.1149	-0.002899	-0.012817
32.452	-0.005646	-0.032654	-0.14938	-0.00351	-0.036011	0.072327	-0.045319	0.013275	0.036926	-0.31372	0.007019	0.000458	0.069275	-0.21622	-0.015564	-0.005951	0.036316	-0.18951	0.27359	0.18768	-0.10254	-0.048218	0.12329	-0.043793	-0.005341	0	0.27786	-0.01358	-0.52673	0.059052	-0.001678	-0.007019
32.453	-0.002289	-0.075989	-0.17059	0.008087	-0.15137	0.080872	-0.060272	0.005188	0.021515	-0.032806	0.001526	-0.010071	0.022888	-0.19684	-0.018311	-0.026093	0.075073	-0.21698	0.19867	0.10819	-0.089111	-0.010681	0.002289	-0.06424	-0.001526	-0.004272	0.45364	-0.003815	-0.64514	-0.036469	0.001526	-0.005188
32.454	0.009155	-0.09903	-0.080261	0.001984	-0.09491	0.063324	-0.067291	0.009308	0.03418	0.27603	0.011444	0.018005	-0.056305	-0.12497	-0.037537	-0.030212	0.063324	-0.24933	-0.00412	0.037994	-0.062256	-0.000763	-0.049896	-0.1088	0.011902	-0.006256	0.3891	-0.002136	-0.33112	-0.13519	-0.002441	-0.019226
32.455	0.011292	-0.10056	-0.026855	0.014343	0.047913	0.24963	-0.055542	0.008698	0.0383	-0.036469	0.020752	0.032043	-0.082397	0.035095	-0.012665	-0.025787	0.062866	-0.25177	-0.32669	-0.060272	-0.058594	0.015717	0.040131	-0.10025	0.000916	-0.001373	-0.13763	-0.002441	-0.04364	-0.21729	-0.001373	-0.010529
32.456	0.019836	-0.060425	-0.027924	-0.009155	0.13092	0.29388	-0.049744	0.005341	0.022736	-0.1886	0.009003	0.039673	-0.086975	0.046539	-0.005798	-0.019379	0.064697	-0.1709	-0.15427	-0.028839	-0.049744	0.012665	0.080414	-0.10864	0.007935	0.002136	-0.68848	-0.002594	0.26352	-0.17532	-0.000763	-0.002747
32.457	0.015869	-0.070496	-0.032959	0.009766	0.1265	0.37857	-0.014496	-0.05127	-0.095367	-0.22736	0.011292	0.035706	-0.011749	0.050659	0.058899	-0.01236	0.032349	-0.15457	0.33585	0.04425	-0.062103	0.017395	-0.003204	-0.12772	0.00824	-0.001068	-0.51483	-0.001678	0.3038	-0.16754	-0.002899	-0.000458
32.458	0.003967	-0.003662	0.021515	0.013275	0.078888	0.35721	-0.016937	0.006714	-0.050659	-0.42435	0.018616	0.017548	0.061035	0.11261	0.005646	-0.01236	0.010223	-0.098572	0.94086	0.10925	-0.067902	0.002289	-0.14374	-0.15182	0.010529	0.002899	-0.56656	-0.000153	0.12161	-0.079803	-0.002289	-0.010986
32.459	0.002594	-0.034332	-0.001831	0.002747	0.067444	0.39932	0.024719	0.003357	-0.027771	-0.49866	0.018921	-0.001526	0.013733	0.10361	-0.049133	-0.00885	-0.002441	-0.075378	0.92255	0.10529	-0.081482	-0.01236	-0.070038	-0.14008	0.005341	0.007477	-0.21545	-0.003662	0.024567	-0.080109	0.00061	-0.009308
32.46	0.007019	-0.02182	0.033875	0.008698	0.027161	0.35797	0.046997	-0.003357	-0.042114	-0.3421	0.024414	-0.006104	0.064697	0.07782	-0.051727	0.000305	-0.00061	-0.13138	0.60898	0.024567	-0.075073	-0.011292	-0.13611	-0.13351	0.011749	0.004425	0.056	-0.007019	-0.016785	-0.0354	-0.001221	-0.018311
32.461	-0.006256	-0.016327	0.073547	0.001373	-0.006714	0.06546	0.039673	0.003662	-0.036163	0.10315	0.010529	-0.013885	0.014496	0.14114	-0.027771	-0.006866	0.001221	-0.16632	-0.060272	-0.053711	-0.071259	-0.007629	-0.19134	-0.16312	0.00412	0.00946	0.27374	-0.001526	-0.036011	0.11307	-0.005951	-0.016785
32.462	0.015869	-0.040741	0.018158	0.001831	0.010681	0.038605	0.022888	-0.002136	-0.001984	0.15793	0.009613	-0.009003	0.12604	0.10178	-0.007935	0	-0.010376	-0.224	-0.63156	-0.03006	-0.061646	0.001831	-0.17548	-0.16327	-0.013123	-0.005798	0.48599	-0.005188	-0.16769	0.1709	-0.000305	-0.018311
32.463	0.037689	-0.033875	-0.040131	0.01236	0.015869	0.1062	-0.002899	-0.000916	-0.024719	0.17563	0.018311	-0.009613	0.44861	0.077667	0.000153	0.003967	-0.010834	-0.19867	-0.40756	-0.037842	-0.057373	0.018311	-0.25879	-0.18692	-0.014496	-0.007782	0.60043	-0.002136	-0.17563	0.17975	-0.005188	-0.005035
32.464	0.026703	-0.029602	-0.020905	-0.007019	-0.006104	0.084991	-0.008087	0.006714	-0.053711	0.4364	0.006561	0.002289	0.44922	0.051727	0.008698	0.006561	-0.002747	-0.16419	-0.76004	-0.023956	-0.045776	0.016785	-0.35019	-0.16525	-0.008545	0	0.40314	-0.001831	-0.040131	0.10757	-0.013123	-0.006409
32.465	0.024719	0.035706	0.045776	-0.002594	-0.004425	0.08667	-0.004883	0.011444	-0.031433	0.6221	0.015259	0.001984	-0.004425	0.029755	0.009308	0.000916	0.001526	-0.10727	-0.50583	0.091705	-0.04776	0.020447	-0.29999	-0.17166	-0.018311	0.009766	0.09491	0.001373	-0.082245	0.002747	0.000458	-0.003357
32.466	0.017853	0.02243	0.088348	0.001984	-0.020752	-0.040894	0.019989	0.012207	-0.035248	0.2449	0.028687	-0.006104	-0.26733	-0.10605	-0.002289	-0.010223	-0.001373	-0.086823	0.47623	0.10284	-0.05249	0.024719	-0.24185	-0.15182	-0.013275	0.006714	-0.22293	-0.003357	-0.10056	0.009766	-0.003662	-0.013733
32.467	0.007629	0.003967	0.12085	0.006104	-0.005798	-0.52506	-0.01297	0.001678	-0.019684	-0.39917	0.026855	-0.008392	-0.002899	-0.033112	0.068359	-0.002747	0.003662	-0.16068	0.1149	0.00473	-0.04425	0.034637	-0.12283	-0.11093	-0.010071	-0.001831	-0.39642	-0.002594	-0.02243	-0.024109	-0.002594	-0.002441
32.468	0.013885	-0.022278	0.094452	-0.007935	-0.018463	-0.56915	-0.002594	-0.005798	0.050659	-0.43472	0.025024	-0.01236	-0.11124	0.021057	0.069275	-0.010376	0.000305	-0.11368	-0.10025	-0.040588	-0.045166	0.043488	-0.040131	-0.032654	-0.021057	-0.006409	-0.59616	-0.003662	0.12283	-0.13901	-0.002136	-0.001831
